<svg width="284" height="99" viewBox="0 0 284 99" fill="none" xmlns="http://www.w3.org/2000/svg">
<path d="M5.6 48.3C7.73333 47.7 9.86667 47.4 12 47.4C14.2 47.4 16.0667 48.0667 17.6 49.4C19.1333 50.7333 19.9 52.4667 19.9 54.6C19.9 56.6667 19.5333 60.3 18.8 65.5C18.1333 70.6333 17.8 74.6333 17.8 77.5C17.8 84.9667 18.5 91.4 19.9 96.8C17.8333 97.6 15.6 98 13.2 98C10.8 98 8.9 97.4667 7.5 96.4C6.1 95.2667 5.4 93.6667 5.4 91.6C5.4 89.4667 5.8 86 6.6 81.2C7.4 76.4 7.8 72.4333 7.8 69.3C7.8 60.9667 7.06667 53.9667 5.6 48.3ZM6.9 25.7C9.23333 24.6333 11.5333 24.1 13.8 24.1C16.0667 24.1 17.7333 24.7 18.8 25.9C19.9333 27.0333 20.5 28.7333 20.5 31C20.5 33.2667 19.7333 35.2667 18.2 37C16.7333 38.7333 14.8 39.6 12.4 39.6C7.46667 39.6 5 37.0333 5 31.9C5 29.6333 5.63333 27.5667 6.9 25.7ZM31.5883 30.2C39.0549 27.6667 46.7883 26.4 54.7883 26.4C62.7883 26.4 69.4216 28.1 74.6883 31.5C79.955 34.9 82.5883 40.1 82.5883 47.1C82.5883 54.1 80.1216 60 75.1883 64.8C70.2549 69.5333 64.3216 71.9 57.3883 71.9C52.3216 71.9 49.7883 69.9667 49.7883 66.1C49.7883 64.9 50.0216 63.6333 50.4883 62.3C52.2883 62.7667 53.9216 63 55.3883 63C59.9883 63 63.455 61.7333 65.7883 59.2C68.1883 56.6667 69.3883 53.1667 69.3883 48.7C69.3883 44.1667 68.1216 40.8 65.5883 38.6C63.0549 36.4 59.5216 35.3 54.9883 35.3C52.6549 35.3 49.8216 35.7 46.4883 36.5C45.9549 44.7 45.6883 51.9667 45.6883 58.3C45.6883 76.0333 46.3883 88.8667 47.7883 96.8C45.6549 97.6 43.3883 98 40.9883 98C38.5883 98 36.4883 97.2333 34.6883 95.7C32.9549 94.1667 32.0883 92.1333 32.0883 89.6C32.0883 87.0667 32.4216 82.6667 33.0883 76.4C33.7549 70.0667 34.0883 65 34.0883 61.2C34.0883 49.6 33.2549 39.2667 31.5883 30.2ZM90.1703 48.3C92.3036 47.7 94.437 47.4 96.5703 47.4C98.7703 47.4 100.637 48.0667 102.17 49.4C103.704 50.7333 104.47 52.4667 104.47 54.6C104.47 56.6667 104.104 60.3 103.37 65.5C102.704 70.6333 102.37 74.6333 102.37 77.5C102.37 84.9667 103.07 91.4 104.47 96.8C102.404 97.6 100.17 98 97.7703 98C95.3703 98 93.4703 97.4667 92.0703 96.4C90.6703 95.2667 89.9703 93.6667 89.9703 91.6C89.9703 89.4667 90.3703 86 91.1703 81.2C91.9703 76.4 92.3703 72.4333 92.3703 69.3C92.3703 60.9667 91.637 53.9667 90.1703 48.3ZM91.4703 25.7C93.8036 24.6333 96.1036 24.1 98.3703 24.1C100.637 24.1 102.304 24.7 103.37 25.9C104.504 27.0333 105.07 28.7333 105.07 31C105.07 33.2667 104.304 35.2667 102.77 37C101.304 38.7333 99.3703 39.6 96.9703 39.6C92.037 39.6 89.5703 37.0333 89.5703 31.9C89.5703 29.6333 90.2036 27.5667 91.4703 25.7ZM161.059 91.2C161.059 93.5333 160.425 95.3667 159.159 96.7C157.959 97.9667 156.325 98.6 154.259 98.6C152.192 98.6 150.325 98.2 148.659 97.4C147.059 96.5333 145.459 95.1333 143.859 93.2C142.259 91.2667 140.992 89.6333 140.059 88.3C138.725 86.2333 136.292 82.1333 132.759 76C126.092 82.3333 122.759 89.6667 122.759 98C119.425 98 116.625 97.3667 114.359 96.1C112.159 94.8333 111.059 92.9667 111.059 90.5C111.059 88.0333 111.859 85.7667 113.459 83.7C115.125 81.5667 117.759 78.9667 121.359 75.9C125.025 72.8333 127.459 70.7 128.659 69.5C126.125 65.6333 123.592 62.6 121.059 60.4C118.592 58.1333 115.425 56.2667 111.559 54.8C111.559 52.6 112.259 50.8333 113.659 49.5C115.125 48.1 116.825 47.4 118.759 47.4C120.692 47.4 122.425 47.7667 123.959 48.5C125.559 49.1667 126.925 49.9667 128.059 50.9C129.259 51.7667 130.559 53.0667 131.959 54.8C133.625 56.7333 135.792 59.7333 138.459 63.8C140.059 61.9333 141.259 60.4333 142.059 59.3C144.059 56.3 145.059 52.3333 145.059 47.4C147.525 47.4 149.559 47.5 151.159 47.7C152.825 47.9 154.359 48.5333 155.759 49.6C157.225 50.6 157.959 52.0333 157.959 53.9C157.959 55.7667 157.025 57.7333 155.159 59.8C153.292 61.8667 150.925 64 148.059 66.2C145.192 68.3333 143.359 69.8333 142.559 70.7C145.425 76.5 148.292 81.1 151.159 84.5C154.025 87.8333 157.325 90.0667 161.059 91.2Z" fill="#FF9C06"/>
<path d="M173.375 83H168.312L168.969 79.3438L173.516 79.375C174.932 79.375 176.125 79.0417 177.094 78.375C178.062 77.6979 178.823 76.8125 179.375 75.7188C179.938 74.6146 180.318 73.4219 180.516 72.1406L180.656 71.0312C180.75 70.2396 180.781 69.4375 180.75 68.625C180.719 67.8021 180.568 67.0417 180.297 66.3438C180.036 65.6458 179.62 65.0781 179.047 64.6406C178.474 64.2031 177.698 63.9688 176.719 63.9375L171.531 63.9219L172.172 60.25L176.859 60.2656C178.38 60.2969 179.703 60.6094 180.828 61.2031C181.953 61.7865 182.875 62.5781 183.594 63.5781C184.312 64.5781 184.812 65.724 185.094 67.0156C185.375 68.2969 185.432 69.6458 185.266 71.0625L185.141 72.1719C184.932 73.6927 184.5 75.1146 183.844 76.4375C183.198 77.7604 182.359 78.9167 181.328 79.9062C180.307 80.8854 179.125 81.651 177.781 82.2031C176.438 82.7448 174.969 83.0104 173.375 83ZM174.859 60.25L170.906 83H166.328L170.266 60.25H174.859ZM194.188 83.3125C193.031 83.2917 191.99 83.0729 191.062 82.6562C190.135 82.2292 189.359 81.6458 188.734 80.9062C188.12 80.1667 187.667 79.3073 187.375 78.3281C187.083 77.349 186.979 76.2969 187.062 75.1719L187.125 74.5312C187.25 73.3542 187.536 72.2344 187.984 71.1719C188.432 70.1094 189.031 69.1719 189.781 68.3594C190.531 67.5365 191.417 66.8958 192.438 66.4375C193.469 65.9688 194.615 65.75 195.875 65.7812C197.052 65.8021 198.057 66.0417 198.891 66.5C199.724 66.9583 200.396 67.5729 200.906 68.3438C201.417 69.1146 201.766 69.9948 201.953 70.9844C202.141 71.9635 202.177 72.9896 202.062 74.0625L201.812 75.9375H188.75L189.234 72.9375L197.859 72.9531L197.938 72.5625C198.021 71.9896 197.995 71.4583 197.859 70.9688C197.724 70.4688 197.469 70.0677 197.094 69.7656C196.719 69.4635 196.219 69.3021 195.594 69.2812C194.875 69.2604 194.271 69.4115 193.781 69.7344C193.292 70.0573 192.891 70.4844 192.578 71.0156C192.266 71.5469 192.026 72.125 191.859 72.75C191.693 73.3646 191.573 73.9583 191.5 74.5312L191.438 75.1562C191.385 75.7083 191.401 76.2604 191.484 76.8125C191.568 77.3542 191.729 77.8438 191.969 78.2812C192.219 78.7188 192.557 79.0729 192.984 79.3438C193.422 79.6146 193.969 79.7604 194.625 79.7812C195.458 79.8021 196.224 79.6406 196.922 79.2969C197.63 78.9427 198.266 78.474 198.828 77.8906L200.797 80.2656C200.328 80.974 199.729 81.5573 199 82.0156C198.281 82.4635 197.505 82.7917 196.672 83C195.839 83.2188 195.01 83.3229 194.188 83.3125ZM211.828 59L207.672 83H203.266L207.422 59H211.828ZM218.812 66.0938L215.891 83H211.484L214.422 66.0938H218.812ZM214.906 61.7656C214.885 61.0573 215.115 60.4896 215.594 60.0625C216.083 59.6354 216.672 59.4167 217.359 59.4062C218.016 59.3958 218.589 59.5938 219.078 60C219.568 60.3958 219.812 60.9323 219.812 61.6094C219.833 62.3177 219.599 62.8854 219.109 63.3125C218.62 63.7396 218.036 63.9583 217.359 63.9688C216.703 63.9792 216.13 63.7865 215.641 63.3906C215.161 62.9948 214.917 62.4531 214.906 61.7656ZM225.734 79.5312L231.438 66.0938H236.156L227.969 83H225.109L225.734 79.5312ZM225.312 66.0938L226.859 79.9531L226.453 83H223.734L220.828 66.0938H225.312ZM242.906 83.3125C241.75 83.2917 240.708 83.0729 239.781 82.6562C238.854 82.2292 238.078 81.6458 237.453 80.9062C236.839 80.1667 236.385 79.3073 236.094 78.3281C235.802 77.349 235.698 76.2969 235.781 75.1719L235.844 74.5312C235.969 73.3542 236.255 72.2344 236.703 71.1719C237.151 70.1094 237.75 69.1719 238.5 68.3594C239.25 67.5365 240.135 66.8958 241.156 66.4375C242.188 65.9688 243.333 65.75 244.594 65.7812C245.771 65.8021 246.776 66.0417 247.609 66.5C248.443 66.9583 249.115 67.5729 249.625 68.3438C250.135 69.1146 250.484 69.9948 250.672 70.9844C250.859 71.9635 250.896 72.9896 250.781 74.0625L250.531 75.9375H237.469L237.953 72.9375L246.578 72.9531L246.656 72.5625C246.74 71.9896 246.714 71.4583 246.578 70.9688C246.443 70.4688 246.188 70.0677 245.812 69.7656C245.438 69.4635 244.938 69.3021 244.312 69.2812C243.594 69.2604 242.99 69.4115 242.5 69.7344C242.01 70.0573 241.609 70.4844 241.297 71.0156C240.984 71.5469 240.745 72.125 240.578 72.75C240.411 73.3646 240.292 73.9583 240.219 74.5312L240.156 75.1562C240.104 75.7083 240.12 76.2604 240.203 76.8125C240.286 77.3542 240.448 77.8438 240.688 78.2812C240.938 78.7188 241.276 79.0729 241.703 79.3438C242.141 79.6146 242.688 79.7604 243.344 79.7812C244.177 79.8021 244.943 79.6406 245.641 79.2969C246.349 78.9427 246.984 78.474 247.547 77.8906L249.516 80.2656C249.047 80.974 248.448 81.5573 247.719 82.0156C247 82.4635 246.224 82.7917 245.391 83C244.557 83.2188 243.729 83.3229 242.906 83.3125ZM258.391 70.0156L256.141 83H251.75L254.688 66.0938H258.812L258.391 70.0156ZM263.906 65.9531L263.359 70.1562C263.109 70.1146 262.854 70.0781 262.594 70.0469C262.344 70.0156 262.089 69.9948 261.828 69.9844C261.224 69.974 260.677 70.0521 260.188 70.2188C259.698 70.3854 259.271 70.6302 258.906 70.9531C258.552 71.2656 258.25 71.651 258 72.1094C257.76 72.5677 257.578 73.0833 257.453 73.6562L256.594 73.375C256.698 72.5729 256.87 71.7292 257.109 70.8438C257.359 69.9479 257.703 69.1146 258.141 68.3438C258.589 67.5625 259.156 66.9323 259.844 66.4531C260.542 65.9635 261.391 65.724 262.391 65.7344C262.651 65.7344 262.901 65.7552 263.141 65.7969C263.391 65.8385 263.646 65.8906 263.906 65.9531ZM268.641 80.8594L275.484 66.0938H280.328L270.422 85.5625C270.13 86.1771 269.797 86.7448 269.422 87.2656C269.057 87.7969 268.641 88.2552 268.172 88.6406C267.714 89.0365 267.188 89.3385 266.594 89.5469C266.01 89.7656 265.354 89.875 264.625 89.875C264.26 89.875 263.906 89.8438 263.562 89.7812C263.219 89.7188 262.875 89.6458 262.531 89.5625L262.844 86.2344C262.958 86.2448 263.073 86.2552 263.188 86.2656C263.292 86.276 263.396 86.2812 263.5 86.2812C264.021 86.2917 264.479 86.2292 264.875 86.0938C265.281 85.9688 265.635 85.7604 265.938 85.4688C266.24 85.1875 266.51 84.8177 266.75 84.3594L268.641 80.8594ZM269.344 66.0938L270.812 78.5781L270.609 83.125L267.672 83.4688L264.781 66.0938H269.344Z" fill="#F1F1F1"/>
</svg>
